<?xml version="1.0" encoding="utf-8"?>
<!-- Generator: Adobe Illustrator 25.0.1, SVG Export Plug-In . SVG Version: 6.00 Build 0)  -->
<svg version="1.1" xmlns="http://www.w3.org/2000/svg" xmlns:xlink="http://www.w3.org/1999/xlink" x="0px" y="0px"
	 viewBox="0 0 360 180" style="enable-background:new 0 0 360 180;" xml:space="preserve">
<style type="text/css">
	.st0{fill:none;}
	.st1{fill:#00095B;}
	.st2{fill:#FFFFFF;}
</style>
<g id="Positional_Box">
	<rect x="0" y="0.05" class="st0" width="359.89" height="179.95"/>
</g>
<g id="Ford_Oval">
	<g>
		<path class="st1" d="M180,36.06c-79.93,0-144.01,23.96-144.01,54c0,29.86,64.6,54,144.01,54c79.41,0,144.01-24.22,144.01-54
			C324.01,60.28,259.41,36.06,180,36.06z"/>
	</g>
	<path class="st2" d="M264.6,74.56c0.19-0.33-0.01-0.57-0.43-0.57c-2.17,0-5.02,0-7.28,0c-0.54,0-0.82,0.07-1.07,0.57
		c-0.83,1.6-11,16.84-12.9,19.8c-0.32,0.45-0.71,0.39-0.75-0.12c-0.19-1.76-1.71-3.78-4.1-4.75c-1.82-0.74-3.61-0.87-5.46-0.63
		c-3.34,0.45-6.33,2.21-8.95,4.2c-3.95,3-7.36,6.89-11.75,9.77c-2.4,1.56-5.69,2.93-7.89,0.89c-1.99-1.85-1.77-5.95,1.28-9.12
		c0.32-0.33,0.71-0.05,0.65,0.24c-0.29,1.43,0.07,2.86,1.15,3.86c1.33,1.19,3.23,1.33,4.86,0.53c1.92-0.95,3.05-2.79,3.38-4.88
		c0.51-3.24-1.98-6.09-5.1-6.32c-2.53-0.18-4.96,0.7-7.33,2.66c-1.19,0.98-1.86,1.71-2.89,3.17c-0.25,0.36-0.63,0.4-0.62-0.13
		c0.12-4.14-1.6-6.47-5.02-6.55c-2.66-0.06-5.5,1.38-7.71,3.14c-2.43,1.95-4.55,4.53-6.82,6.96c-0.28,0.3-0.53,0.29-0.61-0.29
		c-0.07-2.75-0.76-5.4-2.03-7.29c-0.45-0.66-1.4-0.98-2.19-0.54c-0.37,0.2-1.64,0.79-2.57,1.54c-0.46,0.38-0.64,0.93-0.44,1.63
		c1.23,4.1,0.96,8.76-0.71,12.7c-1.53,3.61-4.5,6.86-7.99,7.96c-2.3,0.73-4.69,0.37-6.17-1.67c-2.03-2.81-1.21-7.71,1.82-11.77
		c2.67-3.58,6.54-5.85,10.39-7.31c0.45-0.17,0.55-0.47,0.42-0.85c-0.21-0.63-0.54-1.5-0.68-1.89c-0.35-0.94-1.34-1.09-2.55-0.96
		c-2.8,0.33-5.33,1.29-7.82,2.62c-6.54,3.5-9.81,10.27-11.25,13.9c-0.69,1.74-1.28,2.83-2.05,3.79c-1.03,1.29-2.32,2.47-4.69,4.55
		c-0.21,0.19-0.37,0.59-0.19,0.96c0.24,0.5,1.47,2.24,1.82,2.39c0.38,0.19,0.83-0.08,1.01-0.2c1.66-1.12,3.63-2.9,4.6-4.11
		c0.34-0.41,0.69-0.24,0.87,0.39c0.9,3.23,3.27,5.86,6.55,6.96c5.99,2.02,12.21-0.9,16.9-6c2.98-3.24,4.06-5.32,5.2-6.73
		c1.94-2.4,5.76-7.77,10.31-11.22c1.67-1.27,3.64-2.24,4.64-1.6c0.8,0.52,1.05,1.72-0.22,4.04c-4.64,8.47-11.47,18.43-12.72,20.84
		c-0.23,0.42-0.03,0.75,0.41,0.75c2.43-0.01,4.83-0.01,7.04-0.01c0.37-0.02,0.53-0.18,0.71-0.44c3.56-5.57,6.91-10.88,10.5-16.36
		c0.2-0.32,0.39-0.07,0.39,0.07c0.07,1.27,0.39,3.01,1.14,4.16c1.36,2.11,3.28,3.02,5.42,3.04c1.7,0.02,2.56-0.24,4.39-0.92
		c1.49-0.55,2.69-1.28,3.6-1.93c0.54-0.37,0.63,0.25,0.62,0.35c-0.82,4.42,0.19,9.67,4.59,11.84c5.26,2.59,11.04-1.05,14.37-4.34
		c0.33-0.32,0.67-0.28,0.71,0.4c0.07,1.26,0.64,2.75,1.68,3.79c2.79,2.8,8.41,1.69,14.06-2.68c3.62-2.8,7.42-6.75,10.84-10.94
		c0.13-0.16,0.22-0.42-0.02-0.69c-0.52-0.55-1.28-1.17-1.79-1.65c-0.24-0.2-0.58-0.14-0.78,0.01c-3.51,3.34-6.67,7.15-11.24,10.3
		c-1.54,1.08-4,1.94-5.1,0.45c-0.43-0.58-0.38-1.38,0.04-2.43C242.42,108.57,263.51,76.46,264.6,74.56z M236.72,101.49
		c0.04,0.25,0.36,0.48,0.68,0.6c0.11,0.04,0.17,0.12,0.05,0.38c-0.9,1.92-1.72,3.03-2.85,4.7c-1.03,1.54-2.2,2.75-3.61,3.9
		c-2.13,1.76-5.08,3.68-7.52,2.39c-1.08-0.56-1.55-2.08-1.53-3.31c0.06-3.46,1.59-7,4.43-10.49c3.46-4.26,7.29-6.47,9.8-5.26
		c2.6,1.24,1.77,4.25,0.61,6.61C236.68,101.19,236.68,101.34,236.72,101.49z"/>
	<path class="st2" d="M111.62,119.77c-7.86,0.06-14.79-4.8-15.59-13.22c-0.44-4.66,0.88-8.82,3.51-12.24
		c2.34-3.05,6.3-5.58,9.65-6.2c1.09-0.2,2.56-0.07,3.16,0.65c0.95,1.11,0.68,2.32-0.27,2.81c-2.56,1.31-5.64,3.54-7.16,6.59
		c-1.24,2.49-1.49,5.5,0.4,8.36c3.16,4.77,11.96,4.9,20.15-2.71c2.03-1.86,3.84-3.65,5.69-5.77c3.6-4.12,4.8-5.62,9.6-12.27
		c0.06-0.08,0.07-0.18,0.05-0.23c-0.04-0.08-0.11-0.11-0.25-0.12c-3.2,0.09-5.99,1.04-8.7,3.07c-0.78,0.57-1.9,0.49-2.4-0.26
		c-0.55-0.85-0.15-1.95,0.75-2.57c4.36-3.03,9.12-3.58,13.99-4.4c0,0,0.34,0.02,0.62-0.35c2-2.56,3.5-4.88,5.63-7.47
		c2.14-2.63,4.92-5.04,7.03-6.86c2.96-2.54,4.85-3.4,6.78-4.44c0.51-0.26-0.06-0.58-0.22-0.58c-10.75-2.02-21.93-4.64-32.61-0.68
		c-7.4,2.76-10.64,8.63-9.08,12.54c1.11,2.78,4.76,3.23,8.19,1.56c2.84-1.39,5.47-3.64,7.34-6.53c1.04-1.6,3.24-0.45,2.05,2.34
		c-3.12,7.35-9.1,13.17-16.37,13.42c-6.19,0.2-10.18-4.35-10.17-9.97c0.02-11.08,12.36-18.38,25.32-19.47
		c15.61-1.29,30.4,2.87,45.89,4.75c11.88,1.44,23.26,1.47,35.2-1.27c1.41-0.31,2.4,0.59,2.31,2.02c-0.12,2.06-1.71,4.04-5.64,6.19
		c-4.47,2.45-9.15,3.2-14.03,3.24c-11.81,0.1-22.82-4.51-34.2-6.98c0.02,0.5,0.14,1.09-0.27,1.41c-6.31,4.65-12.01,9.38-15.83,16.01
		c-0.13,0.15-0.06,0.3,0.16,0.28c3.32-0.18,6.3-0.26,9.39-0.51c0.54-0.04,0.56-0.18,0.51-0.58c-0.27-2.29,0.39-4.89,2.41-6.69
		c2.06-1.85,4.64-2.06,6.35-0.73c1.94,1.51,1.77,4.24,0.71,6.28c-1.08,2.07-2.87,3.18-4.58,3.72c0,0-0.36,0.08-0.31,0.41
		c0.07,0.52,2.4,1.82,2.6,2.16c0.19,0.33,0.09,0.84-0.26,1.23c-0.25,0.28-0.63,0.55-1.13,0.54c-0.4-0.01-0.64-0.15-1.16-0.42
		c-1.05-0.57-2.36-1.5-3.23-2.6c-0.3-0.37-0.45-0.38-1.19-0.34c-3.35,0.19-8.57,0.7-12.11,1.14c-0.86,0.11-0.98,0.27-1.16,0.56
		c-5.64,9.3-11.66,19.33-18.28,26.05C123.77,117.83,117.87,119.72,111.62,119.77z M165.37,78.44c0.09,0.48,0.28,0.57,0.49,0.53
		c1.07-0.21,2.25-1.1,2.95-2.12c0.63-0.93,0.93-2.27,0.3-2.81c-0.56-0.48-1.48-0.35-2.15,0.25
		C165.61,75.48,165.2,77.17,165.37,78.44L165.37,78.44"/>
	<path class="st2" d="M180,139.35C103.78,139.35,42,117.29,42,90.07C42,62.85,103.78,40.79,180,40.79
		c76.21,0,137.98,22.06,137.98,49.28C317.98,117.29,256.2,139.35,180,139.35z M180,44.89c-73.54,0-133.14,20.32-133.14,45.18
		c0,24.87,59.61,45.19,133.14,45.19c73.53,0,133.14-20.32,133.14-45.19C313.13,65.21,253.53,44.89,180,44.89z"/>
</g>
<g id="grid">
</g>
</svg>
